<?xml version="1.0" encoding="UTF-8" standalone="no"?>
<svg
   viewBox="0 0 24 24"
   width="240"
   height="240"
   version="1.1"
   id="svg10"
   sodipodi:docname="inkscape.svg"
   inkscape:version="1.1.1 (3bf5ae0d25, 2021-09-20)"
   xmlns:inkscape="http://www.inkscape.org/namespaces/inkscape"
   xmlns:sodipodi="http://sodipodi.sourceforge.net/DTD/sodipodi-0.dtd"
   xmlns="http://www.w3.org/2000/svg"
   xmlns:svg="http://www.w3.org/2000/svg">
  <defs
     id="defs14" />
  <sodipodi:namedview
     id="namedview12"
     pagecolor="#505050"
     bordercolor="#eeeeee"
     borderopacity="1"
     inkscape:pageshadow="0"
     inkscape:pageopacity="0"
     inkscape:pagecheckerboard="0"
     showgrid="false"
     inkscape:zoom="1.81875"
     inkscape:cx="240"
     inkscape:cy="240"
     inkscape:window-width="1918"
     inkscape:window-height="2061"
     inkscape:window-x="5752"
     inkscape:window-y="0"
     inkscape:window-maximized="0"
     inkscape:current-layer="svg10" />
  <path
     fill="#212121"
     d="M 20.290259,10.745986 13.433867,3.6146666 c -0.850913,-0.8195555 -2.249192,-0.8195555 -3.036695,0 L 3.7805083,10.498851 c -2.5081468,2.547864 1.700598,2.343282 3.1962406,3.3085 0.6897301,0.456627 -2.0323721,1.047051 -1.440006,1.64934 0.5772297,0.605972 3.3038319,1.151797 3.8810616,1.738947 0.5772297,0.602289 -1.1560957,1.243449 -0.5751842,1.845739 0.5625024,0.602289 1.8094167,0.02864 2.0532357,1.398113 0.176319,1.013908 2.364146,0.504499 3.391378,-0.359655 0.641048,-0.553599 -1.120914,-0.55319 -0.543684,-1.159162 0.517502,-0.531095 1.012095,-0.767182 1.462097,-0.912845 0.805912,-0.265547 1.72637,-0.206218 2.067554,-1.089194 0.288819,-0.733222 -2.154282,-1.30687 -1.494825,-1.778227 1.574189,-1.12561 7.181212,-1.685756 4.511883,-4.394421 z m -7.58785,4.89892 c -0.869731,0.299508 -4.8547019,-1.615379 -3.8086521,-1.615379 0.1800007,4.09e-4 6.0766611,0.844924 3.8086521,1.615379 z m 5.297749,2.076917 c -0.755594,0.779048 0.131319,1.59533 0.870549,1.05728 0.197592,-0.148527 -0.01595,-0.871929 -0.870549,-1.05728 z m 0.553912,-0.755317 c 0,0.367838 2.582601,0.57774 2.440237,-0.08756 -0.205773,-1.1207 -2.154691,-1.033139 -2.440237,0.08756 z"
     id="path2"
     style="stroke-width:0.409128" />
  <path
     fill="#212121"
     d="M 6.089427,19.129756 C 6.6936568,19.766006 7.6075697,18.99064 7.9017073,18.095799 7.3138412,17.161268 5.1423776,18.155537 6.089427,19.129756 Z"
     id="path4"
     style="stroke-width:0.409128" />
  <path
     fill="#424242"
     d="M 13.133183,4.469001 11.300449,7.5745557 8.0522534,13.081903 C 7.4181598,12.840496 6.7390661,12.693197 6.1049725,12.578631 5.859517,12.50089 5.6099705,12.431332 5.360424,12.365866 4.8940584,12.239025 4.0472367,12.005802 3.8304176,11.805311 c 0.028637,-0.08592 0.1390915,-0.319147 0.552275,-0.740586 L 7.5245239,7.7995959 11.001811,4.1825862 c 0.225001,-0.2332234 0.544093,-0.3641559 0.904095,-0.3641559 0.360001,0 0.711821,0.1350241 0.965458,0.3764309 z"
     id="path6"
     style="stroke-width:0.409128" />
  <path
     fill="#fafafa"
     d="m 15.710467,7.1449335 c -0.01227,0.040916 -0.03273,0.07365 -0.05318,0.098199 L 14.409552,6.2161313 14.164097,7.7259464 13.137274,7.1653917 11.464086,8.2374014 11.300449,7.5745557 10.911811,5.9829078 10.019989,7.9428033 7.7904341,7.9264368 c -0.1390915,0 -0.2250009,-0.0491 -0.2659102,-0.1268409 L 11.001811,4.1825862 c 0.225001,-0.2332234 0.544093,-0.3641559 0.904095,-0.3641559 0.360001,0 0.711821,0.1350241 0.965458,0.3764309 l 0.261819,0.2741398 z"
     id="path8"
     style="stroke-width:0.409128" />
</svg>
