<?xml version="1.0" encoding="UTF-8" standalone="no"?>
<svg
   fill="#000000"
   viewBox="0 0 30 30"
   width="240px"
   height="240px"
   version="1.1"
   id="svg4"
   sodipodi:docname="icons8-github (1).svg"
   inkscape:version="1.1.1 (3bf5ae0d25, 2021-09-20)"
   xmlns:inkscape="http://www.inkscape.org/namespaces/inkscape"
   xmlns:sodipodi="http://sodipodi.sourceforge.net/DTD/sodipodi-0.dtd"
   xmlns="http://www.w3.org/2000/svg"
   xmlns:svg="http://www.w3.org/2000/svg">
  <defs
     id="defs8" />
  <sodipodi:namedview
     id="namedview6"
     pagecolor="#505050"
     bordercolor="#eeeeee"
     borderopacity="1"
     inkscape:pageshadow="0"
     inkscape:pageopacity="0"
     inkscape:pagecheckerboard="0"
     showgrid="false"
     inkscape:zoom="3.6375"
     inkscape:cx="120"
     inkscape:cy="120"
     inkscape:window-width="1918"
     inkscape:window-height="2061"
     inkscape:window-x="3832"
     inkscape:window-y="0"
     inkscape:window-maximized="0"
     inkscape:current-layer="svg4" />
  <path
     d="M 14.999626,3.9375 C 8.7870199,3.9375 3.75,8.9745083 3.75,15.1871 c 0,5.271375 3.6298792,9.682155 8.523467,10.902737 -0.0525,-0.15187 -0.08625,-0.328114 -0.08625,-0.546543 V 23.62055 c -0.456547,0 -1.221521,0 -1.413703,0 -0.769662,0 -1.4540138,-0.330926 -1.7858778,-0.945904 C 8.619213,21.991233 8.5554651,20.945957 7.6423705,20.306605 7.371442,20.0938 7.5776851,19.850996 7.8898623,19.883808 c 0.5765433,0.163119 1.0546524,0.55873 1.5046374,1.145584 0.4481101,0.587791 0.6590413,0.720912 1.4962003,0.720912 0.405923,0 1.013404,-0.02344 1.58526,-0.113434 0.30749,-0.780909 0.839034,-1.499946 1.488701,-1.839309 -3.746126,-0.385299 -5.5338793,-2.248983 -5.5338793,-4.779205 0,-1.089337 0.4640471,-2.143049 1.2524584,-3.03083 -0.2587414,-0.881219 -0.584043,-2.6783421 0.099371,-3.3626928 1.6855699,0 2.7045979,1.0930861 2.9492779,1.3883878 0.839972,-0.2878019 1.762441,-0.4509211 2.731784,-0.4509211 0.971217,0 1.897436,0.1631192 2.739283,0.4527961 0.241868,-0.2934268 1.261833,-1.3902628 2.951152,-1.3902628 0.686228,0.6852881 0.357176,2.4899118 0.09562,3.3692548 0.783724,0.885906 1.244959,1.936806 1.244959,3.024268 0,2.528347 -1.784941,4.391093 -5.525441,4.778267 1.029341,0.537169 1.780253,2.04649 1.780253,3.183637 v 2.563034 c 0,0.0975 -0.02156,0.167806 -0.03281,0.251241 4.383604,-1.536508 7.532561,-5.69886 7.532561,-10.607435 1e-6,-6.2125917 -5.037019,-11.2496 -11.249624,-11.2496 z"
     id="path2"
     style="stroke-width:0.937468" />
</svg>
