<?xml version="1.0" encoding="UTF-8" standalone="no"?>
<svg
   viewBox="0 0 48 48"
   width="240px"
   height="240px"
   version="1.1"
   id="svg6"
   sodipodi:docname="icons8-python.svg"
   inkscape:version="1.1.1 (3bf5ae0d25, 2021-09-20)"
   xmlns:inkscape="http://www.inkscape.org/namespaces/inkscape"
   xmlns:sodipodi="http://sodipodi.sourceforge.net/DTD/sodipodi-0.dtd"
   xmlns="http://www.w3.org/2000/svg"
   xmlns:svg="http://www.w3.org/2000/svg">
  <defs
     id="defs10" />
  <sodipodi:namedview
     id="namedview8"
     pagecolor="#505050"
     bordercolor="#eeeeee"
     borderopacity="1"
     inkscape:pageshadow="0"
     inkscape:pageopacity="0"
     inkscape:pagecheckerboard="0"
     showgrid="false"
     inkscape:zoom="3.6375"
     inkscape:cx="120"
     inkscape:cy="120"
     inkscape:window-width="1918"
     inkscape:window-height="2061"
     inkscape:window-x="5752"
     inkscape:window-y="0"
     inkscape:window-maximized="0"
     inkscape:current-layer="svg6" />
  <g
     id="g14"
     transform="matrix(0.94791225,0,0,0.94791225,1.6751039,1.2605081)">
    <path
       fill="#0277bd"
       d="m 24.047,5 c -1.555,0.005 -2.633,0.142 -3.936,0.367 -3.848,0.67 -4.549,2.077 -4.549,4.67 V 14 h 9 v 2 H 15.22 10.87 c -2.636,0 -4.943,1.242 -5.674,4.219 -0.826,3.417 -0.863,5.557 0,9.125 C 5.851,32.005 7.294,34 9.931,34 h 3.632 V 28.896 C 13.563,25.93 16.249,23 19.327,23 h 7.236 c 2.523,0 5,-1.862 5,-4.377 V 10.037 C 31.563,7.598 29.804,5.774 27.345,5.365 27.406,5.359 25.589,4.994 24.047,5 Z m -4.984,4 c 0.821,0 1.5,0.677 1.5,1.502 0,0.833 -0.679,1.498 -1.5,1.498 -0.837,0 -1.5,-0.664 -1.5,-1.498 C 17.563,9.68 18.226,9 19.063,9 Z"
       id="path2" />
    <path
       fill="#ffc107"
       d="m 23.078,43 c 1.555,-0.005 2.633,-0.142 3.936,-0.367 3.848,-0.67 4.549,-2.077 4.549,-4.67 V 34 h -9 v -2 h 9.343 4.35 c 2.636,0 4.943,-1.242 5.674,-4.219 0.826,-3.417 0.863,-5.557 0,-9.125 C 41.274,15.995 39.831,14 37.194,14 h -3.632 v 5.104 C 33.562,22.07 30.876,25 27.798,25 h -7.236 c -2.523,0 -5,1.862 -5,4.377 v 8.586 c 0,2.439 1.759,4.263 4.218,4.672 -0.061,0.006 1.756,0.371 3.298,0.365 z m 4.985,-4 c -0.821,0 -1.5,-0.677 -1.5,-1.502 0,-0.833 0.679,-1.498 1.5,-1.498 0.837,0 1.5,0.664 1.5,1.498 0,0.822 -0.664,1.502 -1.5,1.502 z"
       id="path4" />
  </g>
</svg>
